<svg display="none" xmlns="http://www.w3.org/2000/svg">

    <symbol id="vk-icon" viewBox="0 0 32 32">
        <g>
            <path fill-rule="evenodd" clip-rule="evenodd"
                d="M27.45 8.948C27.616 8.402 27.45 8 26.655 8H24.03C23.362 8 23.054 8.347 22.887 8.73C22.887 8.73 21.552 11.926 19.661 14.002C19.049 14.604 18.771 14.795 18.437 14.795C18.27 14.795 18.019 14.604 18.019 14.057V8.948C18.019 8.292 17.835 8 17.279 8H13.151C12.734 8 12.483 8.304 12.483 8.593C12.483 9.214 13.429 9.358 13.526 11.106V14.904C13.526 15.737 13.373 15.888 13.039 15.888C12.149 15.888 9.984 12.677 8.699 9.003C8.45 8.288 8.198 8 7.527 8H4.9C4.15 8 4 8.347 4 8.73C4 9.412 4.89 12.8 8.145 17.281C10.315 20.341 13.37 22 16.153 22C17.822 22 18.028 21.632 18.028 20.997V18.684C18.028 17.947 18.186 17.8 18.715 17.8C19.105 17.8 19.772 17.992 21.33 19.467C23.11 21.216 23.403 22 24.405 22H27.03C27.78 22 28.156 21.632 27.94 20.904C27.702 20.18 26.852 19.129 25.725 17.882C25.113 17.172 24.195 16.407 23.916 16.024C23.527 15.533 23.638 15.314 23.916 14.877C23.916 14.877 27.116 10.451 27.449 8.948" />
        </g>
    </symbol>


    <symbol id="viber-icon" viewBox="0 0 32 32">
        <path fill-rule="evenodd" clip-rule="evenodd"
            d="M22.2346 3.50406C18.0397 2.56635 13.6895 2.56635 9.49458 3.50406L9.04258 3.60406C7.86229 3.86717 6.77817 4.4527 5.91093 5.29545C5.0437 6.1382 4.42738 7.20511 4.13058 8.37739C3.0691 12.5677 3.0691 16.9565 4.13058 21.1467C4.41366 22.2647 4.98762 23.2878 5.79415 24.1122C6.60068 24.9365 7.61104 25.5327 8.72258 25.8401L9.34258 29.5414C9.36238 29.6589 9.41331 29.769 9.4901 29.8602C9.56688 29.9513 9.66669 30.0202 9.77915 30.0597C9.89161 30.0992 10.0126 30.1078 10.1295 30.0847C10.2464 30.0615 10.355 30.0074 10.4439 29.9281L14.0853 26.6707C16.8187 26.8357 19.5618 26.6172 22.2346 26.0214L22.6879 25.9214C23.8682 25.6583 24.9523 25.0728 25.8196 24.23C26.6868 23.3873 27.3031 22.3203 27.5999 21.1481C28.6614 16.9578 28.6614 12.569 27.5999 8.37873C27.303 7.20627 26.6865 6.13925 25.819 5.29648C24.9515 4.45371 23.8671 3.86828 22.6866 3.60539L22.2346 3.50406ZM10.6199 8.26939C10.3721 8.23311 10.1194 8.283 9.90392 8.41073H9.88525C9.38525 8.70406 8.93458 9.07339 8.55058 9.50806C8.23058 9.87739 8.05725 10.2507 8.01192 10.6107C7.98525 10.8241 8.00392 11.0401 8.06658 11.2441L8.09058 11.2574C8.45058 12.3147 8.91992 13.3321 9.49325 14.2894C10.2328 15.6338 11.1426 16.8774 12.1999 17.9894L12.2319 18.0347L12.2826 18.0721L12.3132 18.1081L12.3506 18.1401C13.4666 19.2005 14.713 20.1145 16.0599 20.8601C17.5999 21.6987 18.5346 22.0947 19.0959 22.2601V22.2681C19.2599 22.3187 19.4093 22.3414 19.5599 22.3414C20.0382 22.3071 20.491 22.1126 20.8453 21.7894C21.2786 21.4054 21.6453 20.9534 21.9306 20.4507V20.4414C22.1986 19.9347 22.1079 19.4574 21.7213 19.1334C20.9452 18.454 20.1053 17.8512 19.2133 17.3334C18.6159 17.0094 18.0093 17.2054 17.7639 17.5334L17.2399 18.1947C16.9706 18.5227 16.4826 18.4774 16.4826 18.4774L16.4693 18.4854C12.8279 17.5561 11.8559 13.8694 11.8559 13.8694C11.8559 13.8694 11.8106 13.3681 12.1479 13.1121L12.8039 12.5841C13.1186 12.3281 13.3373 11.7227 12.9999 11.1254C12.4834 10.234 11.8819 9.39451 11.2039 8.61873C11.0556 8.43656 10.8479 8.31242 10.6172 8.26806M16.7719 6.66673C16.5951 6.66673 16.4255 6.73697 16.3005 6.86199C16.1755 6.98701 16.1053 7.15658 16.1053 7.33339C16.1053 7.5102 16.1755 7.67977 16.3005 7.8048C16.4255 7.92982 16.5951 8.00006 16.7719 8.00006C18.4586 8.00006 19.8586 8.55073 20.9666 9.60673C21.5359 10.1841 21.9799 10.8681 22.2706 11.6174C22.5626 12.3681 22.6959 13.1694 22.6613 13.9721C22.6576 14.0596 22.6712 14.147 22.7013 14.2293C22.7314 14.3116 22.7774 14.3872 22.8367 14.4517C22.9565 14.5819 23.1231 14.6593 23.2999 14.6667C23.4767 14.6742 23.6492 14.611 23.7795 14.4913C23.9098 14.3715 23.9872 14.2049 23.9946 14.0281C24.0344 13.0408 23.8705 12.0559 23.5133 11.1347C23.1543 10.2088 22.6078 9.36721 21.9079 8.66273L21.8946 8.64939C20.5199 7.33606 18.7799 6.66673 16.7719 6.66673ZM16.7266 8.85873C16.5498 8.85873 16.3802 8.92897 16.2552 9.05399C16.1302 9.17901 16.0599 9.34858 16.0599 9.52539C16.0599 9.70221 16.1302 9.87177 16.2552 9.9968C16.3802 10.1218 16.5498 10.1921 16.7266 10.1921H16.7493C17.9653 10.2787 18.8506 10.6841 19.4706 11.3494C20.1066 12.0347 20.4359 12.8867 20.4106 13.9401C20.4065 14.1169 20.4729 14.2881 20.595 14.416C20.7172 14.5439 20.8851 14.618 21.0619 14.6221C21.2387 14.6261 21.4099 14.5598 21.5378 14.4376C21.6657 14.3155 21.7399 14.1475 21.7439 13.9707C21.7759 12.5881 21.3306 11.3947 20.4479 10.4427V10.4401C19.5453 9.47206 18.3066 8.96006 16.8159 8.86006L16.7933 8.85739L16.7266 8.85873ZM16.7013 11.0921C16.612 11.0842 16.5221 11.0944 16.4369 11.122C16.3518 11.1496 16.273 11.1942 16.2054 11.2529C16.1378 11.3117 16.0827 11.3834 16.0434 11.4639C16.0042 11.5444 15.9816 11.632 15.9769 11.7215C15.9722 11.8109 15.9856 11.9004 16.0163 11.9845C16.047 12.0687 16.0943 12.1458 16.1555 12.2112C16.2166 12.2767 16.2903 12.3291 16.3722 12.3655C16.454 12.4018 16.5424 12.4213 16.6319 12.4227C17.1893 12.4521 17.5453 12.6201 17.7693 12.8454C17.9946 13.0721 18.1626 13.4361 18.1933 14.0054C18.1949 14.0949 18.2146 14.1831 18.2511 14.2648C18.2875 14.3465 18.3401 14.42 18.4056 14.481C18.4711 14.542 18.5482 14.5891 18.6323 14.6196C18.7164 14.6502 18.8058 14.6635 18.8952 14.6587C18.9845 14.654 19.072 14.6313 19.1524 14.592C19.2328 14.5527 19.3045 14.4977 19.3631 14.4301C19.4218 14.3626 19.4663 14.2839 19.4939 14.1988C19.5215 14.1137 19.5317 14.0239 19.5239 13.9347C19.4813 13.1347 19.2306 12.4281 18.7173 11.9081C18.2013 11.3881 17.4986 11.1347 16.7013 11.0921Z" />
        <path fill-rule="evenodd" clip-rule="evenodd"
            d="M22.2346 3.50406C18.0397 2.56635 13.6895 2.56635 9.49458 3.50406L9.04258 3.60406C7.86229 3.86717 6.77817 4.4527 5.91093 5.29545C5.0437 6.1382 4.42738 7.20511 4.13058 8.37739C3.0691 12.5677 3.0691 16.9565 4.13058 21.1467C4.41366 22.2647 4.98762 23.2878 5.79415 24.1122C6.60068 24.9365 7.61104 25.5327 8.72258 25.8401L9.34258 29.5414C9.36238 29.6589 9.41331 29.769 9.4901 29.8602C9.56688 29.9513 9.66669 30.0202 9.77915 30.0597C9.89161 30.0992 10.0126 30.1078 10.1295 30.0847C10.2464 30.0615 10.355 30.0074 10.4439 29.9281L14.0853 26.6707C16.8187 26.8357 19.5618 26.6172 22.2346 26.0214L22.6879 25.9214C23.8682 25.6583 24.9523 25.0728 25.8196 24.23C26.6868 23.3873 27.3031 22.3203 27.5999 21.1481C28.6614 16.9578 28.6614 12.569 27.5999 8.37873C27.303 7.20627 26.6865 6.13925 25.819 5.29648C24.9515 4.45371 23.8671 3.86828 22.6866 3.60539L22.2346 3.50406ZM10.6199 8.26939C10.3721 8.23311 10.1194 8.283 9.90392 8.41073H9.88525C9.38525 8.70406 8.93458 9.07339 8.55058 9.50806C8.23058 9.87739 8.05725 10.2507 8.01192 10.6107C7.98525 10.8241 8.00392 11.0401 8.06658 11.2441L8.09058 11.2574C8.45058 12.3147 8.91992 13.3321 9.49325 14.2894C10.2328 15.6338 11.1426 16.8774 12.1999 17.9894L12.2319 18.0347L12.2826 18.0721L12.3132 18.1081L12.3506 18.1401C13.4666 19.2005 14.713 20.1145 16.0599 20.8601C17.5999 21.6987 18.5346 22.0947 19.0959 22.2601V22.2681C19.2599 22.3187 19.4093 22.3414 19.5599 22.3414C20.0382 22.3071 20.491 22.1126 20.8453 21.7894C21.2786 21.4054 21.6453 20.9534 21.9306 20.4507V20.4414C22.1986 19.9347 22.1079 19.4574 21.7213 19.1334C20.9452 18.454 20.1053 17.8512 19.2133 17.3334C18.6159 17.0094 18.0093 17.2054 17.7639 17.5334L17.2399 18.1947C16.9706 18.5227 16.4826 18.4774 16.4826 18.4774L16.4693 18.4854C12.8279 17.5561 11.8559 13.8694 11.8559 13.8694C11.8559 13.8694 11.8106 13.3681 12.1479 13.1121L12.8039 12.5841C13.1186 12.3281 13.3373 11.7227 12.9999 11.1254C12.4834 10.234 11.8819 9.39451 11.2039 8.61873C11.0556 8.43656 10.8479 8.31242 10.6172 8.26806M16.7719 6.66673C16.5951 6.66673 16.4255 6.73697 16.3005 6.86199C16.1755 6.98701 16.1053 7.15658 16.1053 7.33339C16.1053 7.5102 16.1755 7.67977 16.3005 7.8048C16.4255 7.92982 16.5951 8.00006 16.7719 8.00006C18.4586 8.00006 19.8586 8.55073 20.9666 9.60673C21.5359 10.1841 21.9799 10.8681 22.2706 11.6174C22.5626 12.3681 22.6959 13.1694 22.6613 13.9721C22.6576 14.0596 22.6712 14.147 22.7013 14.2293C22.7314 14.3116 22.7774 14.3872 22.8367 14.4517C22.9565 14.5819 23.1231 14.6593 23.2999 14.6667C23.4767 14.6742 23.6492 14.611 23.7795 14.4913C23.9098 14.3715 23.9872 14.2049 23.9946 14.0281C24.0344 13.0408 23.8705 12.0559 23.5133 11.1347C23.1543 10.2088 22.6078 9.36721 21.9079 8.66273L21.8946 8.64939C20.5199 7.33606 18.7799 6.66673 16.7719 6.66673ZM16.7266 8.85873C16.5498 8.85873 16.3802 8.92897 16.2552 9.05399C16.1302 9.17901 16.0599 9.34858 16.0599 9.52539C16.0599 9.70221 16.1302 9.87177 16.2552 9.9968C16.3802 10.1218 16.5498 10.1921 16.7266 10.1921H16.7493C17.9653 10.2787 18.8506 10.6841 19.4706 11.3494C20.1066 12.0347 20.4359 12.8867 20.4106 13.9401C20.4065 14.1169 20.4729 14.2881 20.595 14.416C20.7172 14.5439 20.8851 14.618 21.0619 14.6221C21.2387 14.6261 21.4099 14.5598 21.5378 14.4376C21.6657 14.3155 21.7399 14.1475 21.7439 13.9707C21.7759 12.5881 21.3306 11.3947 20.4479 10.4427V10.4401C19.5453 9.47206 18.3066 8.96006 16.8159 8.86006L16.7933 8.85739L16.7266 8.85873ZM16.7013 11.0921C16.612 11.0842 16.5221 11.0944 16.4369 11.122C16.3518 11.1496 16.273 11.1942 16.2054 11.2529C16.1378 11.3117 16.0827 11.3834 16.0434 11.4639C16.0042 11.5444 15.9816 11.632 15.9769 11.7215C15.9722 11.8109 15.9856 11.9004 16.0163 11.9845C16.047 12.0687 16.0943 12.1458 16.1555 12.2112C16.2166 12.2767 16.2903 12.3291 16.3722 12.3655C16.454 12.4018 16.5424 12.4213 16.6319 12.4227C17.1893 12.4521 17.5453 12.6201 17.7693 12.8454C17.9946 13.0721 18.1626 13.4361 18.1933 14.0054C18.1949 14.0949 18.2146 14.1831 18.2511 14.2648C18.2875 14.3465 18.3401 14.42 18.4056 14.481C18.4711 14.542 18.5482 14.5891 18.6323 14.6196C18.7164 14.6502 18.8058 14.6635 18.8952 14.6587C18.9845 14.654 19.072 14.6313 19.1524 14.592C19.2328 14.5527 19.3045 14.4977 19.3631 14.4301C19.4218 14.3626 19.4663 14.2839 19.4939 14.1988C19.5215 14.1137 19.5317 14.0239 19.5239 13.9347C19.4813 13.1347 19.2306 12.4281 18.7173 11.9081C18.2013 11.3881 17.4986 11.1347 16.7013 11.0921Z" />
    </symbol>

    <symbol id="whatsapp-icon" viewBox="0 0 32 32">
        <path
            d="M16.0013 2.66699C23.3653 2.66699 29.3347 8.63633 29.3347 16.0003C29.3347 23.3643 23.3653 29.3337 16.0013 29.3337C13.645 29.3377 11.3301 28.7141 9.29466 27.527L2.67332 29.3337L4.47599 22.7097C3.28793 20.6736 2.66386 18.3577 2.66799 16.0003C2.66799 8.63633 8.63732 2.66699 16.0013 2.66699ZM11.4573 9.73366L11.1907 9.74433C11.0182 9.75621 10.8498 9.80149 10.6947 9.87766C10.5501 9.95967 10.4181 10.0621 10.3027 10.1817C10.1427 10.3323 10.052 10.463 9.95466 10.5897C9.46148 11.2309 9.19595 12.0181 9.19999 12.827C9.20266 13.4803 9.37332 14.1163 9.63999 14.711C10.1853 15.9137 11.0827 17.187 12.2667 18.367C12.552 18.651 12.832 18.9363 13.1333 19.2017C14.6046 20.4969 16.3577 21.431 18.2533 21.9297L19.0107 22.0457C19.2573 22.059 19.504 22.0403 19.752 22.0283C20.1402 22.0079 20.5193 21.9027 20.8627 21.7203C21.0371 21.6301 21.2075 21.5322 21.3733 21.427C21.3733 21.427 21.4298 21.3888 21.54 21.307C21.72 21.1737 21.8307 21.079 21.98 20.923C22.092 20.8074 22.1853 20.6732 22.26 20.5203C22.364 20.303 22.468 19.8883 22.5107 19.543C22.5427 19.279 22.5333 19.135 22.5293 19.0457C22.524 18.903 22.4053 18.755 22.276 18.6923L21.5 18.3443C21.5 18.3443 20.34 17.839 19.6307 17.5163C19.5564 17.484 19.4769 17.4655 19.396 17.4617C19.3048 17.4521 19.2125 17.4623 19.1256 17.4915C19.0386 17.5207 18.959 17.5683 18.892 17.631C18.8853 17.6283 18.796 17.7043 17.832 18.8723C17.7767 18.9467 17.7004 19.0029 17.6131 19.0337C17.5257 19.0646 17.4311 19.0688 17.3413 19.0457C17.2544 19.0225 17.1693 18.9931 17.0867 18.9577C16.9213 18.8883 16.864 18.8617 16.7507 18.8137C15.9852 18.4802 15.2766 18.029 14.6507 17.4763C14.4827 17.3297 14.3267 17.1697 14.1667 17.015C13.6421 16.5126 13.185 15.9443 12.8067 15.3243L12.728 15.1977C12.6723 15.1121 12.6267 15.0203 12.592 14.9243C12.5413 14.7283 12.6733 14.571 12.6733 14.571C12.6733 14.571 12.9973 14.2163 13.148 14.0243C13.2947 13.8377 13.4187 13.6563 13.4987 13.527C13.656 13.2737 13.7053 13.0137 13.6227 12.8123C13.2493 11.9003 12.8635 10.9932 12.4653 10.091C12.3867 9.91233 12.1533 9.78433 11.9413 9.75899C11.8693 9.7501 11.7973 9.74299 11.7253 9.73766C11.5463 9.72739 11.3668 9.72917 11.188 9.74299L11.4573 9.73366Z" />
    </symbol>

    <symbol id="plus-icon" viewBox="0 0 32 32">
        <path d="M15.3333 16.6667H8V15.3333H15.3333V8H16.6667V15.3333H24V16.6667H16.6667V24H15.3333V16.6667Z"/>
    </symbol>

</svg>